<!DOCTYPE svg PUBLIC "-//W3C//DTD SVG 1.1//EN" "http://www.w3.org/Graphics/SVG/1.1/DTD/svg11.dtd">
<!-- Uploaded to: SVG Repo, www.svgrepo.com, Transformed by: SVG Repo Mixer Tools -->
<svg fill="#000000" width="175px" height="175px" viewBox="-2.4 -2.4 28.80 28.80" id="sticky-notes-10" data-name="Flat Line" xmlns="http://www.w3.org/2000/svg" class="icon flat-line" stroke="#000000">
<g id="SVGRepo_bgCarrier" stroke-width="0"/>
<g id="SVGRepo_tracerCarrier" stroke-linecap="round" stroke-linejoin="round"/>
<g id="SVGRepo_iconCarrier">
<path id="secondary" d="M21,15l-7,1,1,5H8a1,1,0,0,1-1-1V8A2,2,0,0,1,9,6H20a1,1,0,0,1,1,1Z" style="fill: #14ceeb; stroke-width:0.8399999999999999;"/>
<path id="primary" d="M8,6H20a1,1,0,0,1,1,1v8l-6,6H8a1,1,0,0,1-1-1V7" style="fill: none; stroke: #000000; stroke-linecap: round; stroke-linejoin: round; stroke-width:0.8399999999999999;"/>
<path id="primary-2" data-name="primary" d="M21,15l-6,6-1-5ZM4,5A2,2,0,0,1,6,3H6A2,2,0,0,1,8,5H8A2,2,0,0,1,6,7H6A2,2,0,0,1,4,5Zm6,4L7.41,6.41" style="fill: none; stroke: #000000; stroke-linecap: round; stroke-linejoin: round; stroke-width:0.8399999999999999;"/>
</g>
</svg>